<svg xmlns="http://www.w3.org/2000/svg" viewBox="0 0 100 100" role="img" aria-labelledby="title desc">
  <title id="title">BZH Universe — triskel néon</title>
  <desc id="desc">Triskel cyber bleu et magenta sur fond spatial sombre.</desc>
  <defs>
    <linearGradient id="neon" x1="0" y1="0" x2="1" y2="1">
      <stop offset="0" stop-color="#64f4ff"/>
      <stop offset="0.52" stop-color="#6574ff"/>
      <stop offset="1" stop-color="#f04cff"/>
    </linearGradient>
    <filter id="glow" x="-50%" y="-50%" width="200%" height="200%">
      <feGaussianBlur stdDeviation="2.5" result="blur"/>
      <feMerge><feMergeNode in="blur"/><feMergeNode in="SourceGraphic"/></feMerge>
    </filter>
  </defs>
  <rect width="100" height="100" rx="20" fill="#070b14"/>
  <g fill="none" stroke="url(#neon)" stroke-width="8" stroke-linecap="round" filter="url(#glow)">
    <path d="M50 50c-3-16 5-28 18-28 11 0 18 8 18 18 0 13-13 22-27 18"/>
    <path d="M50 50c15 5 22 17 16 29-5 10-15 13-24 8-12-6-13-21-4-32"/>
    <path d="M50 50c-12 11-26 10-33-1-6-9-3-20 5-26 11-7 25 0 30 13"/>
  </g>
  <circle cx="50" cy="50" r="6" fill="#9ffbff"/>
</svg>
